<svg xmlns="http://www.w3.org/2000/svg" viewBox="0 0 140.33 73.45"><defs><style>.cls-1,.cls-3{fill:#3b1139;}.cls-2,.cls-7{fill:#d84315;}.cls-3{font-size:15.91px;font-family:Swiss721BT-Heavy, Swis721 Hv BT;font-weight:800;}.cls-4{letter-spacing:-0.02em;}.cls-5{letter-spacing:-0.06em;}.cls-6,.cls-7{letter-spacing:0em;}</style></defs><g id="OBJECTS"><path class="cls-1" d="M164.27,94.59c0-.14,0-.28,0-.43l-16.54-.75,16-.72a3.65,3.65,0,0,0-1.06-1.15h0l-25.62-.67,21.18-.55a2.34,2.34,0,0,0-1.61-.64l-10.78-1.19-4.91-8.77a6.54,6.54,0,0,0-2.53-2.53l-11.19-.84h-6v37h6.06a2.21,2.21,0,0,0,2.18-2.54,11.34,11.34,0,0,1-.08-2.86,11.09,11.09,0,0,1,22.13,1.13,11,11,0,0,1-.14,1.74,2.2,2.2,0,0,0,2.19,2.53h7a3.73,3.73,0,0,0,3.74-3.74v-.11l-9.36-.42,9.36-.43Zm-40.22-6.36V78.48h10.56a3.5,3.5,0,0,1,3.06,1.71s0,0,0,0l4.49,8Z" transform="translate(-29.83 -63.28)"/><path class="cls-1" d="M140.39,100.36a8.72,8.72,0,1,0,8.72,8.72A8.71,8.71,0,0,0,140.39,100.36Zm0,13a4.28,4.28,0,1,1,4.28-4.28A4.28,4.28,0,0,1,140.39,113.36Z" transform="translate(-29.83 -63.28)"/><path class="cls-2" d="M115.29,84.31A14.11,14.11,0,0,0,107,71.46h0a14.17,14.17,0,0,0-5.84-1.26H29.83A12.43,12.43,0,0,0,42.26,82.62h53a4,4,0,0,1,3.84,2.94H42.4A12.42,12.42,0,0,0,54.83,98H99.39a4,4,0,0,1,3.83,2.94H55a12.42,12.42,0,0,0,12.42,12.42h47.9Z" transform="translate(-29.83 -63.28)"/><path class="cls-1" d="M119.43,113.35h-2.26V74.09a8.57,8.57,0,0,0-8.56-8.56h-.76V63.28h.76a10.83,10.83,0,0,1,10.82,10.81Z" transform="translate(-29.83 -63.28)"/><path class="cls-1" d="M134.62,75.79l-7.4.56h-6V72.63h5.36A11.87,11.87,0,0,1,134.62,75.79Z" transform="translate(-29.83 -63.28)"/><text class="cls-3" transform="translate(6.48 69.68)">R<tspan class="cls-4" x="11.68" y="0">O</tspan><tspan class="cls-5" x="24.18" y="0">Y</tspan><tspan class="cls-6" x="33.74" y="0">AL</tspan><tspan class="cls-7" x="54.85" y="0">HUNTERS</tspan></text></g></svg>